<svg width="6" height="11" viewBox="0 0 6 11" fill="none" xmlns="http://www.w3.org/2000/svg">
<path d="M3.34054 10.156C3.03721 10.156 2.75554 10.104 2.49554 10C2.24421 9.90467 2.02754 9.766 1.84554 9.584C1.66354 9.402 1.52054 9.17667 1.41654 8.908C1.31254 8.63933 1.26054 8.336 1.26054 7.998C1.26054 7.868 1.26487 7.73367 1.27354 7.595C1.29087 7.44767 1.32121 7.296 1.36454 7.14L2.43054 2.564H0.688539L1.02654 0.951999H4.82254L3.36654 7.426C3.34921 7.478 3.33621 7.53867 3.32754 7.608C3.31887 7.67733 3.31454 7.764 3.31454 7.868C3.31454 8.076 3.37954 8.22767 3.50954 8.323C3.64821 8.41833 3.80854 8.466 3.99054 8.466C4.18121 8.466 4.34587 8.44867 4.48454 8.414C4.62321 8.37067 4.79654 8.30133 5.00454 8.206L5.42054 9.74C5.06521 9.896 4.72287 10.0043 4.39354 10.065C4.07287 10.1257 3.72187 10.156 3.34054 10.156Z" fill="url(#paint0_linear)"/>
<defs>
<linearGradient id="paint0_linear" x1="11" y1="-3" x2="-5" y2="13" gradientUnits="userSpaceOnUse">
<stop stop-color="#9D50BB"/>
<stop offset="1" stop-color="#4A00E0"/>
</linearGradient>
</defs>
</svg>
