<svg width="12" height="12" viewBox="0 0 12 12" fill="none" xmlns="http://www.w3.org/2000/svg">
<path fill-rule="evenodd" clip-rule="evenodd" d="M8.00626 4C7.9411 4.05303 7.89927 4.12228 7.83983 4.18172C7.77422 4.24732 7.70574 4.30968 7.64056 4.37589C7.60632 4.41067 7.57973 4.45201 7.54517 4.48656C7.52121 4.51052 7.49642 4.533 7.47243 4.55648C7.41219 4.6154 7.36248 4.68454 7.30288 4.74414C7.24343 4.80359 7.18182 4.86011 7.12257 4.91935C7.06109 4.98083 6.99498 5.03732 6.93378 5.09852C6.82674 5.20556 6.70621 5.30005 6.59893 5.40733C6.55294 5.45332 6.49445 5.49082 6.45231 5.5398C6.41541 5.58268 6.36414 5.61334 6.32777 5.65698C6.29793 5.69279 6.26613 5.72994 6.23323 5.76284C6.20669 5.78938 6.17688 5.82031 6.15398 5.84945C6.13545 5.87304 6.10652 5.89916 6.08321 5.91823C6.07715 5.92319 6.06553 5.93845 6.0651 5.94626C6.06434 5.95993 6.05396 5.96249 6.04472 5.97173C6.03916 5.97728 6.01861 6.00374 6.02547 6.01136C6.03997 6.02746 6.06226 6.03513 6.07783 6.0507C6.09747 6.07034 6.11371 6.08584 6.12878 6.10929C6.14967 6.14178 6.1688 6.17684 6.19757 6.20355C6.21475 6.21951 6.22893 6.24019 6.24625 6.25705C6.26377 6.27409 6.28186 6.29039 6.29918 6.30771C6.32816 6.33669 6.35369 6.36906 6.38211 6.39857C6.51287 6.53436 6.65138 6.66216 6.79763 6.78182C6.83919 6.81582 6.87707 6.85513 6.91821 6.88995C6.94007 6.90844 6.96036 6.92938 6.97992 6.95024C7.00043 6.97212 7.02822 6.98808 7.04728 7.01109C7.07157 7.0404 7.10354 7.06475 7.12993 7.09261C7.16234 7.12682 7.18887 7.16873 7.22702 7.19734C7.25917 7.22146 7.2856 7.25338 7.31363 7.28141C7.34102 7.30879 7.36529 7.33957 7.39487 7.36377C7.42212 7.38607 7.45072 7.4248 7.47129 7.45322C7.49724 7.48904 7.53299 7.51973 7.56102 7.55398C7.67711 7.69587 7.79705 7.85277 7.95135 7.95365C7.97023 7.966 7.99463 7.97445 8.01135 7.98932C8.02426 8.00079 8.02615 7.99338 8.03909 7.98167C8.05336 7.96876 8.07359 7.95709 8.08495 7.94233C8.11284 7.90607 8.15859 7.88284 8.19081 7.85062C8.22868 7.81275 8.26006 7.7656 8.2944 7.72438C8.34865 7.65929 8.42296 7.623 8.48207 7.56389C8.53729 7.50867 8.59064 7.45079 8.64595 7.39548C8.73159 7.30984 8.81082 7.2204 8.88966 7.12884C8.94313 7.06674 8.99818 7.00619 9.06091 6.95392C9.18461 6.85083 9.29229 6.73525 9.38472 6.60322C9.42707 6.54271 9.48124 6.49714 9.53983 6.4532C9.57785 6.42469 9.61861 6.40074 9.65645 6.37196C9.71352 6.32855 9.75988 6.27774 9.80986 6.22648C9.86527 6.16965 9.91745 6.11015 9.9729 6.05325C9.98424 6.0416 9.99126 6.02585 10.0057 6.01759C10.0108 6.01471 9.98368 5.99659 9.97799 5.99324C9.95568 5.98012 9.93174 5.9378 9.91685 5.91569C9.89944 5.88981 9.88915 5.8605 9.86817 5.83672C9.84037 5.80521 9.80978 5.77334 9.77674 5.74756C9.71202 5.69704 9.65066 5.6442 9.59049 5.58905C9.52517 5.52917 9.46716 5.46051 9.3983 5.40506C9.33662 5.3554 9.27922 5.29855 9.21885 5.24712C9.16142 5.1982 9.10663 5.14622 9.05326 5.09286C9.00752 5.04712 8.97524 4.98896 8.92816 4.94482C8.8703 4.89059 8.81695 4.832 8.7637 4.77329C8.71202 4.71631 8.65363 4.66066 8.59444 4.61167C8.52708 4.55593 8.47172 4.49358 8.41612 4.42627C8.33815 4.33189 8.25096 4.24497 8.16958 4.15341C8.1431 4.12362 8.11686 4.09085 8.08523 4.06652C8.05867 4.04609 8.03688 4.01531 8.00626 4ZM7.91671 5.53377C7.95365 5.49683 7.99115 5.45906 8.02414 5.41854C8.06514 5.45955 8.11703 5.54051 8.15825 5.58173C8.18647 5.60995 8.21724 5.63473 8.24375 5.66463C8.2576 5.68025 8.2771 5.69613 8.29345 5.70934C8.30913 5.722 8.32201 5.73753 8.33881 5.74883C8.40335 5.79227 8.45404 5.86098 8.50244 5.92114C8.52188 5.94532 8.54217 5.9739 8.56407 5.9958C8.58211 6.01384 8.58649 6.00549 8.57492 6.02574C8.5681 6.03767 8.54513 6.04553 8.5339 6.0533C8.50991 6.06991 8.49182 6.09354 8.46923 6.1119C8.41738 6.15403 8.38324 6.20979 8.3375 6.25751C8.28586 6.3114 8.23186 6.3631 8.17474 6.41159C8.11846 6.45939 8.08654 6.52937 8.03173 6.57869C8.00803 6.60002 8.01001 6.58327 7.99093 6.57479C7.98224 6.57092 7.97728 6.55826 7.96945 6.55222C7.9589 6.54408 7.94957 6.53538 7.94015 6.52596C7.91061 6.49641 7.88121 6.46362 7.84836 6.43807C7.80233 6.40227 7.75997 6.34918 7.72574 6.30178C7.69162 6.25454 7.64578 6.21485 7.61007 6.16941C7.58784 6.14111 7.55314 6.11858 7.52717 6.09345C7.50092 6.06804 7.47574 6.04201 7.44992 6.01619C7.43888 6.00515 7.43671 6.00206 7.44992 5.98885C7.47412 5.96465 7.49723 5.93952 7.52066 5.91442C7.55239 5.88043 7.584 5.84721 7.61941 5.81719C7.65218 5.78941 7.67822 5.75511 7.71077 5.72713C7.74043 5.70164 7.77521 5.68311 7.80452 5.65725C7.84591 5.62073 7.87765 5.57284 7.91671 5.53377Z" fill="#78C6FF"/>
<path d="M4.38949 4.51459C4.43833 4.49984 4.4853 4.50855 4.53497 4.50949C4.57159 4.50949 4.63132 4.5474 4.66348 4.55931C4.70996 4.57652 4.75766 4.61022 4.80189 4.63403C4.84337 4.65637 4.88303 4.69001 4.90973 4.72886C4.93739 4.76908 4.98213 4.80822 4.98333 4.86217C4.98406 4.89522 4.98842 4.92721 4.98842 4.96039C4.98842 4.99065 4.97892 5.01879 4.97823 5.04842C4.97701 5.1008 4.95763 5.14071 4.94257 5.18966C4.90919 5.29813 4.82936 5.37777 4.73141 5.42771C4.66733 5.46037 4.60079 5.46733 4.52988 5.46733C4.46021 5.46733 4.37621 5.47117 4.3108 5.44441C4.17931 5.39061 4.03846 5.29188 4.00114 5.14636C3.98277 5.07472 3.99585 4.99245 4.02435 4.92558C4.04999 4.86543 4.06851 4.79208 4.10729 4.73876C4.15693 4.6705 4.21816 4.61088 4.28815 4.56299C4.31937 4.54163 4.35361 4.52542 4.38949 4.51459Z" fill="#78C6FF"/>
<path d="M4.11606 6.72465C4.18589 6.63838 4.32429 6.51006 4.46874 6.5067C4.53069 6.5067 4.59795 6.5092 4.65725 6.52934C4.69583 6.54244 4.73058 6.56795 4.7617 6.59331C4.79607 6.62132 4.83255 6.64656 4.86105 6.68106C4.93068 6.76535 5.02409 6.84837 5.02409 6.96637C5.02409 7.05022 5.00788 7.12573 4.97936 7.2047C4.96361 7.24833 4.95106 7.28754 4.92219 7.32443C4.89465 7.35961 4.86434 7.38169 4.82935 7.4085C4.81033 7.42306 4.78723 7.42969 4.76821 7.44416C4.7514 7.45695 4.73341 7.47008 4.7133 7.47699C4.6831 7.48737 4.65258 7.49663 4.62159 7.50417C4.51824 7.52931 4.41287 7.51692 4.32212 7.45945C4.27899 7.43213 4.23062 7.41448 4.19248 7.37906C4.15877 7.34776 4.12834 7.3144 4.09681 7.28112C4.07814 7.26141 4.06883 7.2392 4.05832 7.21517C4.05036 7.19699 4.03595 7.18233 4.02945 7.16281C4.0144 7.11766 4.01529 7.07093 4.01529 7.02355C4.01529 6.9256 4.04623 6.79716 4.11606 6.72465Z" fill="#78C6FF"/>
<path d="M2.39835 4.52732C2.43539 4.51851 2.47983 4.52478 2.5178 4.52478C2.62859 4.52478 2.73661 4.61072 2.82321 4.67026C2.84112 4.68257 2.86294 4.71242 2.87445 4.73112C2.89118 4.75831 2.91855 4.77871 2.93021 4.80981C2.94007 4.83611 2.96163 4.85711 2.9687 4.88397C2.9772 4.91625 2.97634 4.94644 2.97634 4.97992C2.97634 5.12151 2.94568 5.26656 2.85124 5.37817C2.77397 5.46949 2.64648 5.47243 2.5379 5.47243C2.47005 5.47243 2.40486 5.4669 2.3392 5.44922C2.30779 5.44076 2.27737 5.42864 2.24834 5.41412C2.22696 5.40343 2.21209 5.38694 2.19173 5.37563C2.14082 5.34735 2.11308 5.29095 2.07568 5.24939C2.05397 5.22526 2.03711 5.19637 2.02756 5.1656C2.00728 5.10025 1.99086 5.03462 2.00576 4.96605C2.03191 4.8458 2.08839 4.71983 2.17757 4.63064C2.21526 4.59295 2.26554 4.56595 2.31655 4.55025C2.34496 4.54151 2.36982 4.53412 2.39835 4.52732Z" fill="#78C6FF"/>
<path d="M2.31287 6.5384C2.38352 6.51548 2.46007 6.50068 2.53309 6.49141C2.5781 6.49141 2.63182 6.49412 2.67603 6.50443C2.74054 6.51949 2.7915 6.56312 2.84388 6.60095C2.89544 6.63819 2.95427 6.69406 2.97861 6.7538C2.99142 6.78524 2.99163 6.81279 2.99163 6.84636C2.99163 6.89576 2.99409 6.94592 2.99135 6.99524C2.98708 7.07201 2.95113 7.14219 2.92794 7.21432C2.9057 7.28352 2.84284 7.3433 2.79264 7.39349C2.75189 7.43425 2.69393 7.45594 2.6398 7.47218C2.57144 7.49269 2.50759 7.49002 2.43657 7.49002C2.30836 7.49002 2.22091 7.38673 2.13795 7.30377C2.09594 7.26176 2.0685 7.2336 2.04907 7.17639C2.03132 7.12413 2.0185 7.07586 2.0185 7.02015C2.0185 6.91319 2.06352 6.79811 2.11644 6.70653C2.14352 6.65965 2.18496 6.61451 2.23135 6.58822C2.25894 6.57259 2.28213 6.54837 2.31287 6.5384Z" fill="#78C6FF"/>
<path d="M8.02414 5.41854L8.05949 5.38318C8.04949 5.37318 8.03571 5.36788 8.02158 5.3686C8.00745 5.36933 7.99429 5.376 7.98536 5.38697L8.02414 5.41854ZM7.80452 5.65725L7.8376 5.69475L7.8376 5.69475L7.80452 5.65725ZM7.71077 5.72713L7.67818 5.68921L7.67818 5.68921L7.71077 5.72713ZM7.61941 5.81719L7.65174 5.85533L7.65174 5.85533L7.61941 5.81719ZM7.52066 5.91442L7.48411 5.8803L7.48411 5.8803L7.52066 5.91442ZM7.44992 5.98885L7.41456 5.9535L7.41456 5.9535L7.44992 5.98885ZM7.44992 6.01619L7.48527 5.98084L7.48527 5.98084L7.44992 6.01619ZM7.52717 6.09345L7.56195 6.05752L7.56195 6.05752L7.52717 6.09345ZM7.61007 6.16941L7.64939 6.13852L7.64939 6.13852L7.61007 6.16941ZM7.72574 6.30178L7.76628 6.27251L7.76628 6.27251L7.72574 6.30178ZM7.84836 6.43807L7.81766 6.47754L7.81766 6.47754L7.84836 6.43807ZM7.94015 6.52596L7.9048 6.56132L7.9048 6.56132L7.94015 6.52596ZM7.96945 6.55222L7.93891 6.59181L7.93891 6.59181L7.96945 6.55222ZM7.99093 6.57479L7.97063 6.62048L7.97063 6.62048L7.99093 6.57479ZM8.03173 6.57869L7.99828 6.54153L7.99828 6.54153L8.03173 6.57869ZM8.17474 6.41159L8.20711 6.44971L8.20711 6.44971L8.17474 6.41159ZM8.3375 6.25751L8.3014 6.22292L8.3375 6.25751ZM8.46923 6.1119L8.4377 6.07309L8.4377 6.07309L8.46923 6.1119ZM8.5339 6.0533L8.50544 6.01219L8.50544 6.01219L8.5339 6.0533ZM8.57492 6.02574L8.61833 6.05055L8.61833 6.05055L8.57492 6.02574ZM8.56407 5.9958L8.59942 5.96044L8.59942 5.96044L8.56407 5.9958ZM8.50244 5.92114L8.46347 5.95248L8.46347 5.95248L8.50244 5.92114ZM8.33881 5.74883L8.31089 5.79031L8.31089 5.79031L8.33881 5.74883ZM8.29345 5.70934L8.26203 5.74823L8.26203 5.74823L8.29345 5.70934ZM8.24375 5.66463L8.20634 5.69781L8.20635 5.69781L8.24375 5.66463ZM8.15825 5.58173L8.19361 5.54638L8.19361 5.54638L8.15825 5.58173ZM8.00626 4L8.02862 3.95528C8.01104 3.94649 7.98994 3.94881 7.9747 3.96122L8.00626 4ZM7.83983 4.18172L7.87518 4.21707L7.87518 4.21707L7.83983 4.18172ZM7.64056 4.37589L7.60493 4.34082L7.60493 4.34082L7.64056 4.37589ZM7.54517 4.48656L7.58053 4.52192L7.58053 4.52192L7.54517 4.48656ZM7.47243 4.55648L7.50739 4.59222L7.50739 4.59222L7.47243 4.55648ZM7.30288 4.74414L7.26752 4.70878L7.26752 4.70879L7.30288 4.74414ZM7.12257 4.91935L7.08722 4.88399L7.08722 4.88399L7.12257 4.91935ZM6.93378 5.09852L6.89842 5.06316L6.89842 5.06316L6.93378 5.09852ZM6.45231 5.5398L6.49021 5.57241L6.49021 5.57241L6.45231 5.5398ZM6.32777 5.65698L6.28936 5.62497L6.28936 5.62497L6.32777 5.65698ZM6.23323 5.76284L6.19787 5.72748L6.19787 5.72748L6.23323 5.76284ZM6.15398 5.84945L6.19329 5.88034L6.19329 5.88034L6.15398 5.84945ZM6.08321 5.91823L6.11487 5.95693L6.11487 5.95693L6.08321 5.91823ZM6.0651 5.94626L6.11502 5.94903L6.11502 5.94903L6.0651 5.94626ZM6.04472 5.97173L6.00936 5.93638L6.00936 5.93638L6.04472 5.97173ZM6.02547 6.01136L6.06263 5.97791L6.06263 5.97791L6.02547 6.01136ZM6.07783 6.0507L6.11319 6.01535L6.11319 6.01535L6.07783 6.0507ZM6.12878 6.10929L6.17084 6.08226L6.17084 6.08226L6.12878 6.10929ZM6.19757 6.20355L6.16354 6.24019L6.16354 6.24019L6.19757 6.20355ZM6.24625 6.25705L6.21138 6.29288L6.21138 6.29288L6.24625 6.25705ZM6.29918 6.30771L6.33454 6.27236L6.33454 6.27236L6.29918 6.30771ZM6.38211 6.39857L6.41813 6.36389L6.41813 6.36389L6.38211 6.39857ZM6.79763 6.78182L6.76597 6.82052L6.76597 6.82052L6.79763 6.78182ZM6.91821 6.88995L6.88592 6.92812L6.88592 6.92812L6.91821 6.88995ZM6.97992 6.95024L7.01639 6.91604L7.01639 6.91604L6.97992 6.95024ZM7.04728 7.01109L7.08578 6.97919L7.08578 6.97919L7.04728 7.01109ZM7.12993 7.09261L7.16623 7.05822L7.16623 7.05822L7.12993 7.09261ZM7.22702 7.19734L7.19702 7.23734L7.19702 7.23734L7.22702 7.19734ZM7.31363 7.28141L7.34899 7.24605L7.34899 7.24605L7.31363 7.28141ZM7.39487 7.36377L7.42653 7.32508L7.42653 7.32508L7.39487 7.36377ZM7.47129 7.45322L7.4308 7.48254L7.4308 7.48254L7.47129 7.45322ZM7.56102 7.55398L7.52232 7.58565L7.52232 7.58565L7.56102 7.55398ZM7.95135 7.95365L7.97871 7.9118L7.97871 7.9118L7.95135 7.95365ZM8.01135 7.98932L8.04457 7.95195L8.04457 7.95195L8.01135 7.98932ZM8.03909 7.98167L8.07264 8.01875L8.07264 8.01875L8.03909 7.98167ZM8.08495 7.94233L8.04532 7.91184L8.04532 7.91185L8.08495 7.94233ZM8.2944 7.72438L8.33282 7.75639L8.33282 7.75639L8.2944 7.72438ZM8.88966 7.12884L8.92755 7.16147L8.92755 7.16147L8.88966 7.12884ZM9.06091 6.95392L9.0289 6.91551L9.0289 6.91551L9.06091 6.95392ZM9.38472 6.60322L9.34375 6.57454L9.34375 6.57454L9.38472 6.60322ZM9.53983 6.4532L9.50983 6.4132L9.50983 6.4132L9.53983 6.4532ZM9.65645 6.37196L9.68671 6.41176L9.68671 6.41176L9.65645 6.37196ZM9.80986 6.22648L9.84566 6.26138L9.80986 6.22648ZM9.9729 6.05325L9.93708 6.01836L9.93708 6.01836L9.9729 6.05325ZM10.0057 6.01759L9.98092 5.97417L9.98092 5.97417L10.0057 6.01759ZM9.97799 5.99324L9.95264 6.03634L9.95264 6.03634L9.97799 5.99324ZM9.91685 5.91569L9.95833 5.88777L9.95833 5.88777L9.91685 5.91569ZM9.86817 5.83672L9.83068 5.8698L9.86817 5.83672ZM9.77674 5.74756L9.74598 5.78697L9.74598 5.78697L9.77674 5.74756ZM9.59049 5.58905L9.62428 5.55219L9.62428 5.55219L9.59049 5.58905ZM9.3983 5.40506L9.36694 5.44401L9.36694 5.44401L9.3983 5.40506ZM9.21885 5.24712L9.18642 5.28518L9.18642 5.28518L9.21885 5.24712ZM9.05326 5.09286L9.01791 5.12821L9.01791 5.12821L9.05326 5.09286ZM8.92816 4.94482L8.89396 4.9813L8.89396 4.9813L8.92816 4.94482ZM8.7637 4.77329L8.80074 4.7397L8.80074 4.7397L8.7637 4.77329ZM8.59444 4.61167L8.62632 4.57315L8.62632 4.57315L8.59444 4.61167ZM8.41612 4.42627L8.37757 4.45812L8.37757 4.45812L8.41612 4.42627ZM8.16958 4.15341L8.20695 4.1202L8.20695 4.1202L8.16958 4.15341ZM8.08523 4.06652L8.05474 4.10615L8.05474 4.10615L8.08523 4.06652ZM4.53497 4.50949L4.53403 4.55949H4.53497V4.50949ZM4.38949 4.51459L4.37504 4.46672L4.37504 4.46672L4.38949 4.51459ZM4.28815 4.56299L4.25992 4.52172L4.25992 4.52172L4.28815 4.56299ZM4.10729 4.73876L4.06685 4.70935L4.06685 4.70935L4.10729 4.73876ZM4.02435 4.92558L4.07035 4.94518L4.07035 4.94518L4.02435 4.92558ZM4.00114 5.14636L3.95271 5.15877L3.95271 5.15877L4.00114 5.14636ZM4.3108 5.44441L4.29187 5.49068L4.29187 5.49068L4.3108 5.44441ZM4.73141 5.42771L4.75412 5.47225L4.75412 5.47225L4.73141 5.42771ZM4.94257 5.18966L4.99036 5.20437L4.99036 5.20437L4.94257 5.18966ZM4.97823 5.04842L5.02822 5.04958L5.02822 5.04958L4.97823 5.04842ZM4.98333 4.86217L4.93334 4.86328L4.93334 4.86328L4.98333 4.86217ZM4.90973 4.72886L4.95094 4.70053L4.95094 4.70053L4.90973 4.72886ZM4.80189 4.63403L4.8256 4.59001L4.8256 4.59001L4.80189 4.63403ZM4.66348 4.55931L4.64611 4.6062L4.64611 4.6062L4.66348 4.55931ZM4.46874 6.5067V6.45668L4.46758 6.45671L4.46874 6.5067ZM4.11606 6.72465L4.15221 6.75946L4.15492 6.7561L4.11606 6.72465ZM4.02945 7.16281L4.07688 7.147L4.07688 7.147L4.02945 7.16281ZM4.05832 7.21517L4.01251 7.23521L4.01251 7.23521L4.05832 7.21517ZM4.09681 7.28112L4.06051 7.31551L4.06051 7.31551L4.09681 7.28112ZM4.19248 7.37906L4.15846 7.4157L4.19248 7.37906ZM4.32212 7.45945L4.34887 7.41721L4.34887 7.41721L4.32212 7.45945ZM4.62159 7.50417L4.63341 7.55275L4.63341 7.55275L4.62159 7.50417ZM4.7133 7.47699L4.69704 7.42971L4.69704 7.42971L4.7133 7.47699ZM4.76821 7.44416L4.79848 7.48395L4.79848 7.48395L4.76821 7.44416ZM4.82935 7.4085L4.85975 7.44819L4.85975 7.44819L4.82935 7.4085ZM4.92219 7.32443L4.88281 7.29362L4.88281 7.29362L4.92219 7.32443ZM4.97936 7.2047L4.93234 7.18772L4.93234 7.18772L4.97936 7.2047ZM4.86105 6.68106L4.8996 6.64921L4.86105 6.68106ZM4.7617 6.59331L4.73011 6.63207L4.73011 6.63207L4.7617 6.59331ZM4.65725 6.52934L4.67333 6.482L4.67333 6.482L4.65725 6.52934ZM2.39835 4.52732L2.40994 4.57596L2.39835 4.52732ZM2.31655 4.55025L2.30185 4.50246L2.30185 4.50246L2.31655 4.55025ZM2.17757 4.63064L2.21293 4.66599L2.21293 4.66599L2.17757 4.63064ZM2.00576 4.96605L1.9569 4.95543L1.9569 4.95543L2.00576 4.96605ZM2.02756 5.1656L1.9798 5.18042L1.9798 5.18042L2.02756 5.1656ZM2.07568 5.24939L2.03851 5.28283L2.03851 5.28283L2.07568 5.24939ZM2.19173 5.37563L2.16745 5.41933L2.16745 5.41933L2.19173 5.37563ZM2.24834 5.41412L2.2707 5.3694L2.2707 5.3694L2.24834 5.41412ZM2.3392 5.44922L2.3262 5.4975L2.3262 5.4975L2.3392 5.44922ZM2.85124 5.37817L2.81307 5.34588L2.81307 5.34588L2.85124 5.37817ZM2.9687 4.88397L3.01706 4.87124L3.01706 4.87124L2.9687 4.88397ZM2.93021 4.80981L2.88339 4.82736L2.88339 4.82736L2.93021 4.80981ZM2.87445 4.73112L2.91703 4.70492L2.91703 4.70492L2.87445 4.73112ZM2.82321 4.67026L2.85154 4.62906L2.85154 4.62906L2.82321 4.67026ZM2.53309 6.49141V6.44101L2.52679 6.44181L2.53309 6.49141ZM2.31287 6.5384L2.3283 6.58596L2.3283 6.58596L2.31287 6.5384ZM2.23135 6.58822L2.25601 6.63172L2.25601 6.63172L2.23135 6.58822ZM2.11644 6.70653L2.07314 6.68152L2.07314 6.68152L2.11644 6.70653ZM2.04907 7.17639L2.09641 7.16032L2.04907 7.17639ZM2.13795 7.30377L2.1733 7.26841L2.1733 7.26841L2.13795 7.30377ZM2.6398 7.47218L2.65416 7.52007L2.65416 7.52007L2.6398 7.47218ZM2.92794 7.21432L2.88034 7.19902L2.88034 7.19902L2.92794 7.21432ZM2.99135 6.99524L3.04127 6.99802L3.04127 6.99802L2.99135 6.99524ZM2.97861 6.7538L2.9323 6.77266L2.9323 6.77267L2.97861 6.7538ZM2.84388 6.60095L2.8146 6.64149L2.8146 6.64149L2.84388 6.60095ZM2.67603 6.50443L2.66467 6.55312L2.66467 6.55312L2.67603 6.50443ZM7.98536 5.38697C7.95422 5.42523 7.91849 5.46129 7.88136 5.49842L7.95207 5.56913C7.98882 5.53238 8.02808 5.4929 8.06291 5.4501L7.98536 5.38697ZM7.88136 5.49842C7.85988 5.51989 7.84042 5.54381 7.8232 5.56431C7.80526 5.58567 7.78906 5.60421 7.77144 5.61976L7.8376 5.69475C7.86136 5.67378 7.88173 5.65011 7.89978 5.62862C7.91854 5.60628 7.93448 5.58672 7.95207 5.56913L7.88136 5.49842ZM7.77144 5.61976C7.75938 5.6304 7.74579 5.63989 7.72944 5.65113C7.71388 5.66184 7.69543 5.67439 7.67818 5.68921L7.74336 5.76505C7.75577 5.75438 7.76954 5.74492 7.78611 5.73353C7.8019 5.72267 7.82035 5.70996 7.8376 5.69475L7.77144 5.61976ZM7.67818 5.68921C7.65958 5.7052 7.64313 5.72274 7.62881 5.73791C7.61388 5.75373 7.60101 5.76724 7.58707 5.77906L7.65174 5.85533C7.67057 5.83936 7.68711 5.82183 7.70153 5.80656C7.71656 5.79064 7.72941 5.77704 7.74336 5.76505L7.67818 5.68921ZM7.58707 5.77906C7.54921 5.81116 7.51583 5.84631 7.48411 5.8803L7.55722 5.94853C7.58894 5.91454 7.6188 5.88326 7.65174 5.85533L7.58707 5.77906ZM7.48411 5.8803C7.46032 5.90579 7.43799 5.93007 7.41456 5.9535L7.48527 6.02421C7.51025 5.99923 7.53415 5.97325 7.55722 5.94853L7.48411 5.8803ZM7.41456 5.9535C7.41065 5.95741 7.40515 5.96318 7.40065 5.97023C7.3958 5.97783 7.38979 5.99052 7.39095 6.00688C7.39207 6.02261 7.39932 6.03372 7.40352 6.03927C7.40751 6.04455 7.41224 6.04923 7.41456 6.05155L7.48527 5.98084C7.48208 5.97764 7.4824 5.97779 7.48329 5.97897C7.48439 5.98042 7.48985 5.98786 7.4907 5.99979C7.49159 6.01235 7.48682 6.02109 7.48493 6.02405C7.4834 6.02646 7.48258 6.0269 7.48527 6.02421L7.41456 5.9535ZM7.41456 6.05155C7.43956 6.07654 7.4658 6.10364 7.4924 6.12938L7.56195 6.05752C7.53603 6.03244 7.51191 6.00748 7.48527 5.98084L7.41456 6.05155ZM7.4924 6.12938C7.50711 6.14361 7.52494 6.1577 7.53792 6.16857C7.5523 6.18061 7.56308 6.19052 7.57076 6.2003L7.64939 6.13852C7.63484 6.12 7.61715 6.10449 7.60213 6.09191C7.58571 6.07816 7.57321 6.06842 7.56195 6.05752L7.4924 6.12938ZM7.57076 6.2003C7.59029 6.22516 7.6125 6.24831 7.63205 6.26914C7.65229 6.2907 7.67024 6.31033 7.68521 6.33106L7.76628 6.27251C7.74712 6.24599 7.72509 6.22215 7.70496 6.2007C7.68413 6.17851 7.66556 6.1591 7.64939 6.13852L7.57076 6.2003ZM7.68521 6.33106C7.71985 6.37902 7.76566 6.43709 7.81766 6.47754L7.87905 6.3986C7.83899 6.36745 7.80009 6.31934 7.76628 6.27251L7.68521 6.33106ZM7.81766 6.47754C7.84724 6.50054 7.87251 6.52903 7.9048 6.56132L7.97551 6.49061C7.9487 6.4638 7.91518 6.4267 7.87905 6.3986L7.81766 6.47754ZM7.9048 6.56132C7.91498 6.5715 7.92599 6.58184 7.93891 6.59181L7.99999 6.51263C7.99181 6.50632 7.98417 6.49927 7.97551 6.49061L7.9048 6.56132ZM7.93891 6.59181C7.93647 6.58992 7.93544 6.58849 7.93607 6.58926C7.93697 6.59038 7.9373 6.5909 7.93988 6.59433C7.94176 6.59684 7.94514 6.60129 7.94951 6.60569C7.95394 6.61016 7.96089 6.61615 7.97063 6.62048L8.01124 6.5291C8.01663 6.53149 8.0197 6.53445 8.02051 6.53527C8.02126 6.53603 8.02128 6.5362 8.01986 6.53431C8.01955 6.53389 8.01922 6.53345 8.01881 6.53289C8.01842 6.53237 8.01794 6.53172 8.01745 6.53106C8.01647 6.52976 8.01518 6.52805 8.01371 6.52624C8.01093 6.52282 8.00635 6.51753 7.99999 6.51263L7.93891 6.59181ZM7.97063 6.62048C7.96923 6.61986 7.96854 6.61914 7.9697 6.62012C7.9701 6.62046 7.97048 6.6208 7.97125 6.62146C7.97188 6.62201 7.97294 6.62293 7.97408 6.62388C7.9762 6.62563 7.98043 6.62904 7.98611 6.63206C7.99228 6.63534 8.0004 6.63833 8.0102 6.63896C8.0199 6.63959 8.02855 6.63774 8.03565 6.63507C8.0482 6.63035 8.05823 6.62211 8.06518 6.61586L7.99828 6.54153C7.99733 6.54239 7.99661 6.543 7.9961 6.54341C7.99558 6.54383 7.99536 6.54398 7.9954 6.54396C7.99543 6.54393 7.99585 6.54364 7.99663 6.54321C7.99741 6.54278 7.99869 6.54213 8.00044 6.54148C8.00409 6.5401 8.00973 6.53872 8.01668 6.53917C8.02372 6.53963 8.02934 6.54179 8.03309 6.54378C8.03634 6.54551 8.03822 6.54716 8.03788 6.54687C8.03779 6.5468 8.03758 6.54662 8.03691 6.54604C8.03636 6.54556 8.03538 6.5447 8.03435 6.54383C8.02977 6.53995 8.02217 6.53396 8.01124 6.5291L7.97063 6.62048ZM8.06518 6.61586C8.09707 6.58716 8.12178 6.5529 8.14292 6.52426C8.16516 6.49411 8.18403 6.4693 8.20711 6.44971L8.14238 6.37348C8.10917 6.40168 8.08394 6.43576 8.06245 6.46488C8.03985 6.49551 8.0212 6.52091 7.99828 6.54153L8.06518 6.61586ZM8.20711 6.44971C8.26573 6.39993 8.32097 6.34703 8.3736 6.29211L8.3014 6.22292C8.25075 6.27578 8.19799 6.32626 8.14238 6.37348L8.20711 6.44971ZM8.3736 6.29211C8.3982 6.26645 8.42027 6.23795 8.43967 6.2144C8.45994 6.18979 8.47886 6.1685 8.50076 6.1507L8.4377 6.07309C8.40775 6.09743 8.38368 6.12508 8.36248 6.15082C8.34041 6.17761 8.32255 6.20086 8.3014 6.22292L8.3736 6.29211ZM8.50076 6.1507C8.51452 6.13953 8.52696 6.12668 8.53628 6.11742C8.5465 6.10726 8.55432 6.09998 8.56236 6.09441L8.50544 6.01219C8.48949 6.02324 8.47627 6.03608 8.4658 6.04648C8.45443 6.05777 8.44653 6.06592 8.4377 6.07309L8.50076 6.1507ZM8.56236 6.09441C8.5622 6.09453 8.56247 6.09433 8.56344 6.09377C8.5644 6.09323 8.56563 6.09256 8.56734 6.09166C8.57013 6.0902 8.57566 6.08738 8.58028 6.08483C8.58516 6.08212 8.59154 6.07837 8.59775 6.07358C8.6037 6.06899 8.61206 6.06153 8.61833 6.05055L8.53151 6.00094C8.53437 5.99592 8.5373 5.99392 8.53667 5.9944C8.53631 5.99468 8.53496 5.99561 8.53185 5.99734C8.52846 5.99921 8.52573 6.00056 8.52084 6.00313C8.51696 6.00517 8.511 6.00834 8.50544 6.01219L8.56236 6.09441ZM8.61833 6.05055C8.6201 6.04744 8.6245 6.04008 8.62709 6.03355C8.62864 6.02967 8.63143 6.02174 8.63132 6.01158C8.6312 5.99968 8.6272 5.98926 8.62146 5.98112C8.61678 5.97449 8.61152 5.97026 8.60973 5.96882C8.60795 5.9674 8.60527 5.96544 8.60496 5.96521C8.60332 5.96398 8.60167 5.96269 8.59942 5.96044L8.52871 6.03115C8.53548 6.03792 8.54115 6.04236 8.54504 6.04527C8.54561 6.04569 8.54694 6.04668 8.54702 6.04674C8.54751 6.0471 8.54747 6.04708 8.54723 6.04689C8.54701 6.04671 8.5461 6.04598 8.54491 6.04483C8.54371 6.04367 8.54177 6.04164 8.53974 6.03876C8.53762 6.03576 8.53542 6.03185 8.53378 6.02702C8.53212 6.02213 8.53138 6.01725 8.53133 6.01266C8.53124 6.00414 8.53358 5.9981 8.53419 5.99656C8.53488 5.99482 8.53537 5.99407 8.53463 5.99543C8.53397 5.99663 8.5331 5.99815 8.53151 6.00094L8.61833 6.05055ZM8.59942 5.96044C8.58005 5.94107 8.56367 5.9175 8.5414 5.8898L8.46347 5.95248C8.4801 5.97315 8.50428 6.00672 8.52871 6.03115L8.59942 5.96044ZM8.5414 5.8898C8.49553 5.83279 8.43919 5.75613 8.36673 5.70735L8.31089 5.79031C8.3675 5.82842 8.41255 5.88917 8.46347 5.95248L8.5414 5.8898ZM8.36673 5.70735C8.36196 5.70415 8.35705 5.69987 8.35005 5.69325C8.34387 5.68741 8.33467 5.67836 8.32487 5.67044L8.26203 5.74823C8.26791 5.75298 8.27299 5.75802 8.28137 5.76594C8.28893 5.77308 8.29885 5.78221 8.31089 5.79031L8.36673 5.70735ZM8.32487 5.67044C8.30783 5.65668 8.29176 5.6434 8.28116 5.63146L8.20635 5.69781C8.22345 5.71709 8.24636 5.73557 8.26203 5.74823L8.32487 5.67044ZM8.28116 5.63146C8.2662 5.61458 8.25038 5.59954 8.23561 5.58586C8.22034 5.57172 8.20682 5.55959 8.19361 5.54638L8.1229 5.61709C8.1379 5.6321 8.15387 5.64646 8.16767 5.65924C8.18197 5.67248 8.19479 5.68478 8.20634 5.69781L8.28116 5.63146ZM8.19361 5.54638C8.17591 5.52868 8.15488 5.50125 8.13089 5.46976C8.1084 5.44023 8.08291 5.4066 8.05949 5.38318L7.98878 5.45389C8.00637 5.47148 8.02733 5.49884 8.05134 5.53036C8.07385 5.5599 8.09937 5.59357 8.1229 5.61709L8.19361 5.54638ZM7.9747 3.96122C7.93811 3.991 7.90879 4.02476 7.88242 4.05653C7.85528 4.08924 7.83206 4.11877 7.80447 4.14636L7.87518 4.21707C7.90703 4.18523 7.93445 4.15042 7.95938 4.12039C7.98508 4.08942 8.00925 4.06204 8.03782 4.03878L7.9747 3.96122ZM7.80447 4.14636C7.77213 4.1787 7.73905 4.21027 7.70544 4.24247C7.67199 4.27452 7.63809 4.30712 7.60493 4.34082L7.67619 4.41097C7.70821 4.37844 7.74114 4.34676 7.77462 4.31468C7.80795 4.28275 7.84192 4.25034 7.87518 4.21707L7.80447 4.14636ZM7.60493 4.34082C7.58571 4.36034 7.56891 4.38143 7.55399 4.40002C7.53852 4.4193 7.52486 4.43616 7.50981 4.45121L7.58053 4.52192C7.60003 4.50241 7.61695 4.48133 7.63198 4.46261C7.64755 4.4432 7.66117 4.42623 7.67619 4.41097L7.60493 4.34082ZM7.50981 4.45121C7.48501 4.47601 7.46437 4.49441 7.43746 4.52074L7.50739 4.59222C7.52847 4.5716 7.55742 4.54503 7.58053 4.52192L7.50981 4.45121ZM7.43746 4.52074C7.40551 4.552 7.37664 4.58567 7.34939 4.61759C7.32168 4.65004 7.29567 4.68064 7.26752 4.70878L7.33823 4.7795C7.36969 4.74804 7.39834 4.71426 7.42544 4.68252C7.45301 4.65023 7.47911 4.61988 7.50739 4.59222L7.43746 4.52074ZM7.26752 4.70879C7.23824 4.73807 7.20836 4.76669 7.17806 4.79572C7.14789 4.82462 7.11728 4.85393 7.08722 4.88399L7.15793 4.9547C7.18711 4.92553 7.21693 4.89696 7.24723 4.86793C7.27741 4.83903 7.30807 4.80966 7.33823 4.7795L7.26752 4.70879ZM7.08722 4.88399C7.05729 4.91393 7.02611 4.94276 6.99413 4.97233C6.96239 5.00167 6.92983 5.03175 6.89842 5.06316L6.96914 5.13388C6.99893 5.10408 7.03003 5.07533 7.06201 5.04575C7.09376 5.01641 7.12638 4.98625 7.15793 4.9547L7.08722 4.88399ZM6.89842 5.06316C6.84615 5.11544 6.79041 5.16482 6.73329 5.2154C6.67656 5.26565 6.61847 5.31708 6.56358 5.37197L6.63429 5.44268C6.68668 5.39029 6.74248 5.34085 6.79959 5.29027C6.85632 5.24003 6.91436 5.18865 6.96914 5.13388L6.89842 5.06316ZM6.56358 5.37197C6.54269 5.39286 6.51899 5.41181 6.49227 5.43394C6.46658 5.45524 6.4385 5.47919 6.41441 5.50718L6.49021 5.57241C6.50827 5.55142 6.5305 5.53214 6.55608 5.51094C6.58064 5.49059 6.60919 5.46778 6.63429 5.44268L6.56358 5.37197ZM6.41441 5.50718C6.39908 5.525 6.38035 5.54076 6.35766 5.55984C6.33614 5.57793 6.31082 5.59922 6.28936 5.62497L6.36618 5.68899C6.38109 5.6711 6.39959 5.65523 6.42202 5.63637C6.44328 5.61849 6.46864 5.59748 6.49021 5.57241L6.41441 5.50718ZM6.28936 5.62497C6.25965 5.66062 6.22907 5.69629 6.19787 5.72748L6.26858 5.7982C6.30319 5.76359 6.3362 5.72496 6.36618 5.68899L6.28936 5.62497ZM6.19787 5.72748C6.17117 5.75418 6.13954 5.7869 6.11466 5.81856L6.19329 5.88034C6.21421 5.85372 6.2422 5.82458 6.26859 5.7982L6.19787 5.72748ZM6.11466 5.81856C6.09959 5.83774 6.0741 5.86109 6.05155 5.87954L6.11487 5.95693C6.13895 5.93724 6.1713 5.90833 6.19329 5.88034L6.11466 5.81856ZM6.05155 5.87954C6.04347 5.88615 6.03597 5.89539 6.03083 5.90287C6.02798 5.90702 6.02483 5.91211 6.02215 5.91772C6.01994 5.92233 6.01582 5.93178 6.01517 5.94348L6.11502 5.94903C6.11477 5.95348 6.11387 5.95667 6.11343 5.95809C6.11293 5.95966 6.11248 5.96061 6.11237 5.96084C6.11218 5.96124 6.11239 5.96075 6.11326 5.95949C6.11405 5.95834 6.11494 5.9572 6.11568 5.95634C6.11667 5.9552 6.11643 5.95566 6.11487 5.95693L6.05155 5.87954ZM6.01517 5.94348C6.01535 5.94035 6.01626 5.93592 6.01872 5.93127C6.02105 5.92689 6.02368 5.92436 6.02441 5.9237C6.02472 5.92342 6.02476 5.92341 6.02416 5.92388C6.02335 5.92452 6.02291 5.92484 6.02125 5.92611C6.0186 5.92814 6.01408 5.93166 6.00936 5.93638L6.08007 6.00709C6.07997 6.00719 6.08021 6.00692 6.08213 6.00544C6.08324 6.00459 6.08783 6.0012 6.09177 5.99761C6.09634 5.99345 6.10229 5.98714 6.10706 5.97814C6.11198 5.96888 6.11447 5.959 6.11502 5.94903L6.01517 5.94348ZM6.00936 5.93638C6.00335 5.94239 5.99439 5.95371 5.98761 5.96497C5.98425 5.97055 5.97959 5.97909 5.97676 5.98888C5.97503 5.99489 5.96777 6.02199 5.98831 6.04481L6.06263 5.97791C6.07133 5.98757 6.07364 5.99824 6.07402 6.00485C6.07437 6.011 6.07322 6.01529 6.07285 6.01659C6.07212 6.0191 6.07166 6.01925 6.07327 6.01657C6.07455 6.01444 6.07628 6.01196 6.07803 6.00968C6.08004 6.00708 6.08087 6.00629 6.08007 6.00709L6.00936 5.93638ZM5.98831 6.04481C6.00086 6.05875 6.01587 6.06804 6.02461 6.07354C6.03529 6.08026 6.03946 6.08304 6.04248 6.08606L6.11319 6.01535C6.10064 6.00279 6.08588 5.99395 6.07789 5.98892C6.06796 5.98267 6.06458 5.98007 6.06263 5.97791L5.98831 6.04481ZM6.04248 6.08606C6.06309 6.10667 6.07512 6.11828 6.08673 6.13633L6.17084 6.08226C6.1523 6.05341 6.13185 6.03401 6.11319 6.01535L6.04248 6.08606ZM6.08673 6.13633C6.10482 6.16448 6.12875 6.20788 6.16354 6.24019L6.23159 6.16691C6.20886 6.14581 6.19452 6.11908 6.17084 6.08226L6.08673 6.13633ZM6.16354 6.24019C6.16962 6.24584 6.17564 6.25277 6.18371 6.26229C6.19113 6.27105 6.20065 6.28244 6.21138 6.29288L6.28112 6.22121C6.27453 6.2148 6.26829 6.20742 6.26 6.19764C6.25235 6.18861 6.24269 6.17722 6.23159 6.16691L6.16354 6.24019ZM6.21138 6.29288C6.23158 6.31253 6.24598 6.32523 6.26383 6.34307L6.33454 6.27236C6.31774 6.25556 6.29595 6.23564 6.28112 6.22121L6.21138 6.29288ZM6.26383 6.34307C6.27706 6.3563 6.28974 6.37055 6.30332 6.38598C6.3166 6.40106 6.33093 6.4175 6.3461 6.43325L6.41813 6.36389C6.40487 6.35012 6.39223 6.33563 6.37839 6.3199C6.36485 6.30453 6.35028 6.2881 6.33454 6.27236L6.26383 6.34307ZM6.3461 6.43325C6.47822 6.57046 6.61818 6.6996 6.76597 6.82052L6.82929 6.74312C6.68457 6.62471 6.54752 6.49826 6.41813 6.36389L6.3461 6.43325ZM6.76597 6.82052C6.78537 6.83639 6.80416 6.85371 6.82402 6.87219C6.84353 6.89034 6.86425 6.90978 6.88592 6.92812L6.95051 6.85178C6.93104 6.8353 6.91224 6.81768 6.89214 6.79898C6.87238 6.7806 6.85146 6.76126 6.82929 6.74312L6.76597 6.82052ZM6.88592 6.92812C6.90544 6.94464 6.92408 6.96379 6.94344 6.98443L7.01639 6.91604C6.99664 6.89497 6.9747 6.87225 6.95051 6.85178L6.88592 6.92812ZM6.94344 6.98443C6.95663 6.9985 6.97194 7.01043 6.98274 7.01915C6.99479 7.02888 7.00283 7.03581 7.00878 7.04299L7.08578 6.97919C7.07267 6.96337 7.05728 6.95081 7.04555 6.94134C7.03256 6.93085 7.02373 6.92386 7.01639 6.91604L6.94344 6.98443ZM7.00878 7.04299C7.02323 7.06043 7.03945 7.07578 7.05389 7.08912C7.06908 7.10315 7.08192 7.11463 7.09364 7.127L7.16623 7.05822C7.15155 7.04273 7.13521 7.0281 7.12174 7.01566C7.10753 7.00254 7.09562 6.99107 7.08578 6.97919L7.00878 7.04299ZM7.09364 7.127C7.10854 7.14274 7.12079 7.15878 7.13809 7.1793C7.15418 7.19838 7.17329 7.21954 7.19702 7.23734L7.25702 7.15734C7.2426 7.14653 7.22937 7.13243 7.21455 7.11485C7.20095 7.09871 7.18373 7.07669 7.16623 7.05822L7.09364 7.127ZM7.19702 7.23734C7.22545 7.25866 7.24563 7.28412 7.27828 7.31676L7.34899 7.24605C7.32558 7.22264 7.2929 7.18425 7.25702 7.15734L7.19702 7.23734ZM7.27828 7.31676C7.29116 7.32965 7.30255 7.34253 7.31686 7.35788C7.33044 7.37244 7.34574 7.38818 7.36321 7.40247L7.42653 7.32508C7.41442 7.31517 7.4028 7.30341 7.39 7.28968C7.37793 7.27675 7.36349 7.26055 7.34899 7.24605L7.27828 7.31676ZM7.36321 7.40247C7.38448 7.41987 7.40928 7.45283 7.4308 7.48254L7.51179 7.42389C7.49216 7.39678 7.45976 7.35227 7.42653 7.32508L7.36321 7.40247ZM7.4308 7.48254C7.44595 7.50347 7.46348 7.52224 7.47921 7.53871C7.49567 7.55596 7.50985 7.5704 7.52232 7.58565L7.59972 7.52232C7.58416 7.50331 7.56645 7.48528 7.55154 7.46966C7.5359 7.45328 7.52258 7.43879 7.51179 7.42389L7.4308 7.48254ZM7.52232 7.58565C7.63623 7.72486 7.76167 7.88937 7.92398 7.9955L7.97871 7.9118C7.83243 7.81616 7.71798 7.66687 7.59972 7.52232L7.52232 7.58565ZM7.92398 7.9955C7.93613 8.00344 7.95063 8.01048 7.959 8.01485C7.96924 8.0202 7.97473 8.02366 7.97814 8.02669L8.04457 7.95195C8.03125 7.94011 8.01619 7.93191 8.00532 7.92623C7.99259 7.91958 7.98545 7.91621 7.97871 7.9118L7.92398 7.9955ZM7.97814 8.02669C7.98279 8.03083 7.99145 8.038 8.00342 8.04202C8.01892 8.04721 8.03463 8.04548 8.04786 8.03877C8.0575 8.03387 8.06437 8.02685 8.06617 8.02507C8.06964 8.02167 8.07042 8.02076 8.07264 8.01875L8.00555 7.9446C8.0013 7.94844 7.99699 7.95285 7.99606 7.95377C7.99524 7.95458 7.99543 7.95435 7.99611 7.95378C7.9968 7.95321 7.99904 7.9514 8.00257 7.94961C8.00638 7.94768 8.01172 7.94574 8.01829 7.9452C8.02491 7.94465 8.03071 7.94569 8.03521 7.9472C8.04279 7.94974 8.04637 7.95355 8.04457 7.95195L7.97814 8.02669ZM8.07264 8.01875C8.07785 8.01404 8.08319 8.01036 8.09367 8.00227C8.1022 7.99569 8.11464 7.98573 8.12458 7.97282L8.04532 7.91185C8.0439 7.91369 8.04055 7.91695 8.03256 7.92312C8.02652 7.92778 8.01461 7.9364 8.00555 7.9446L8.07264 8.01875ZM8.12458 7.97282C8.13407 7.96048 8.14764 7.94907 8.16646 7.93481C8.18351 7.92188 8.20693 7.90521 8.22616 7.88598L8.15545 7.81527C8.14246 7.82826 8.12689 7.83931 8.10605 7.85512C8.08696 7.86959 8.06372 7.88792 8.04532 7.91184L8.12458 7.97282ZM8.22616 7.88598C8.24737 7.86477 8.26622 7.84151 8.28338 7.81947C8.30118 7.7966 8.31634 7.77616 8.33282 7.75639L8.25599 7.69237C8.23812 7.71382 8.22042 7.73756 8.20447 7.75804C8.18789 7.77934 8.17212 7.7986 8.15545 7.81527L8.22616 7.88598ZM8.33282 7.75639C8.3559 7.72868 8.38391 7.7063 8.41644 7.68187C8.44777 7.65834 8.48473 7.63194 8.51742 7.59925L8.44671 7.52854C8.4203 7.55495 8.39055 7.57625 8.35638 7.60191C8.32342 7.62667 8.28715 7.65498 8.25599 7.69237L8.33282 7.75639ZM8.51742 7.59925C8.54545 7.57122 8.57295 7.54257 8.60004 7.51435C8.62726 7.486 8.65407 7.45807 8.68131 7.43083L8.6106 7.36012C8.58252 7.3882 8.555 7.41687 8.5279 7.44509C8.50069 7.47344 8.4739 7.50135 8.44671 7.52854L8.51742 7.59925ZM8.68131 7.43083C8.76828 7.34386 8.84847 7.2533 8.92755 7.16147L8.85177 7.09622C8.77316 7.18751 8.6949 7.27582 8.6106 7.36012L8.68131 7.43083ZM8.92755 7.16147C8.98065 7.0998 9.0335 7.04184 9.09292 6.99233L9.0289 6.91551C8.96286 6.97054 8.90562 7.03369 8.85177 7.09622L8.92755 7.16147ZM9.09292 6.99233C9.21985 6.88655 9.33059 6.76773 9.42568 6.63189L9.34375 6.57454C9.25399 6.70277 9.14937 6.81511 9.0289 6.91551L9.09292 6.99233ZM9.42568 6.63189C9.46336 6.57806 9.51233 6.53632 9.56983 6.4932L9.50983 6.4132C9.45015 6.45796 9.39078 6.50737 9.34375 6.57454L9.42568 6.63189ZM9.56983 6.4932C9.58755 6.47991 9.60606 6.46757 9.62599 6.45425C9.64552 6.4412 9.6664 6.42721 9.68671 6.41176L9.62618 6.33217C9.60865 6.3455 9.59023 6.35787 9.57042 6.37111C9.551 6.38409 9.53013 6.39798 9.50983 6.4132L9.56983 6.4932ZM9.68671 6.41176C9.74756 6.36549 9.79728 6.311 9.84566 6.26138L9.77406 6.19157C9.72248 6.24447 9.67949 6.29162 9.62618 6.33217L9.68671 6.41176ZM9.84566 6.26138C9.8739 6.23242 9.90124 6.20285 9.92807 6.17384C9.95505 6.14467 9.98152 6.11605 10.0087 6.08814L9.93708 6.01836C9.90883 6.04735 9.88148 6.07693 9.85466 6.10594C9.82768 6.13511 9.80123 6.16371 9.77406 6.19157L9.84566 6.26138ZM10.0087 6.08814C10.0136 6.08314 10.0175 6.07816 10.0205 6.07429C10.022 6.07237 10.0234 6.07043 10.0246 6.0689C10.0258 6.06726 10.0267 6.06597 10.0277 6.06478C10.0316 6.05972 10.0321 6.06012 10.0305 6.061L9.98092 5.97417C9.96492 5.98331 9.95466 5.99573 9.94862 6.00352C9.94077 6.01365 9.94014 6.01522 9.93708 6.01836L10.0087 6.08814ZM10.0305 6.061C10.0408 6.05514 10.0507 6.04467 10.0547 6.02963C10.0582 6.0163 10.0555 6.00522 10.0535 5.99946C10.0498 5.98891 10.0435 5.98184 10.0417 5.97978C10.0365 5.974 10.0303 5.96904 10.0265 5.96606C10.018 5.9595 10.0081 5.95293 10.0033 5.95015L9.95264 6.03634C9.95253 6.03627 9.95294 6.03652 9.95395 6.03717C9.95487 6.03776 9.95603 6.03853 9.95734 6.03942C9.96004 6.04125 9.96291 6.04329 9.96527 6.04512C9.96827 6.04745 9.96829 6.04776 9.96698 6.04629C9.96649 6.04574 9.96543 6.04451 9.96419 6.04268C9.96309 6.04107 9.96079 6.03747 9.95898 6.03224C9.95725 6.02726 9.9546 6.01686 9.95796 6.00412C9.96178 5.98966 9.97131 5.97967 9.98092 5.97417L10.0305 6.061ZM10.0033 5.95015C10.0039 5.95046 10.0021 5.94942 9.99807 5.94501C9.99434 5.94092 9.9901 5.9355 9.98541 5.9289C9.97459 5.91366 9.96841 5.90274 9.95833 5.88777L9.87537 5.94361C9.88018 5.95075 9.89341 5.97205 9.90386 5.98678C9.91435 6.00155 9.93127 6.02377 9.95264 6.03634L10.0033 5.95015ZM9.95833 5.88777C9.95135 5.8774 9.9462 5.86701 9.93776 5.8515C9.93004 5.83732 9.92004 5.81993 9.90566 5.80363L9.83068 5.8698C9.83728 5.87728 9.84292 5.88644 9.84994 5.89933C9.85624 5.9109 9.86494 5.9281 9.87537 5.94361L9.95833 5.88777ZM9.90566 5.80363C9.87714 5.77131 9.84416 5.73675 9.80751 5.70814L9.74598 5.78697C9.7754 5.80994 9.8036 5.83911 9.83068 5.8698L9.90566 5.80363ZM9.80751 5.70814C9.74403 5.6586 9.68369 5.60665 9.62428 5.55219L9.55671 5.6259C9.61763 5.68175 9.68 5.73548 9.74598 5.78697L9.80751 5.70814ZM9.62428 5.55219C9.59279 5.52332 9.56329 5.49256 9.53125 5.46021C9.49978 5.42843 9.46641 5.39571 9.42966 5.36612L9.36694 5.44401C9.39905 5.46986 9.42912 5.49919 9.4602 5.53058C9.49071 5.56139 9.52288 5.59489 9.55671 5.6259L9.62428 5.55219ZM9.42966 5.36612C9.40006 5.34228 9.37122 5.31651 9.34167 5.28972C9.31244 5.2632 9.28222 5.23542 9.25127 5.20906L9.18642 5.28518C9.21585 5.31025 9.24452 5.33661 9.2745 5.36379C9.30416 5.39069 9.33487 5.41818 9.36694 5.44401L9.42966 5.36612ZM9.25127 5.20906C9.19517 5.16127 9.14139 5.11027 9.08862 5.0575L9.01791 5.12821C9.07186 5.18217 9.12766 5.23513 9.18642 5.28518L9.25127 5.20906ZM9.08862 5.0575C9.06859 5.03748 9.05122 5.01445 9.03096 4.9879C9.01148 4.96239 8.98933 4.93364 8.96235 4.90835L8.89396 4.9813C8.91406 5.00015 8.9316 5.02255 8.95147 5.04858C8.97055 5.07358 8.99219 5.1025 9.01791 5.12821L9.08862 5.0575ZM8.96235 4.90835C8.9062 4.8557 8.85414 4.79858 8.80074 4.7397L8.72667 4.80689C8.77975 4.86541 8.83441 4.92547 8.89396 4.9813L8.96235 4.90835ZM8.80074 4.7397C8.74742 4.68092 8.68731 4.62363 8.62632 4.57315L8.56256 4.65019C8.61995 4.69769 8.67661 4.75169 8.72667 4.80689L8.80074 4.7397ZM8.62632 4.57315C8.56264 4.52046 8.50967 4.46102 8.45466 4.39443L8.37757 4.45812C8.43377 4.52615 8.49151 4.59139 8.56256 4.65019L8.62632 4.57315ZM8.45466 4.39443C8.37645 4.29975 8.28511 4.20812 8.20695 4.1202L8.13221 4.18663C8.21682 4.28182 8.29984 4.36403 8.37757 4.45812L8.45466 4.39443ZM8.20695 4.1202C8.18303 4.09328 8.15224 4.05498 8.11572 4.02689L8.05474 4.10615C8.08149 4.12672 8.10316 4.15396 8.13221 4.18663L8.20695 4.1202ZM8.11572 4.02689C8.1054 4.01895 8.09695 4.0098 8.082 3.99537C8.06884 3.98266 8.05116 3.96655 8.02862 3.95528L7.9839 4.04472C7.99198 4.04876 8.00051 4.05569 8.01254 4.06731C8.02278 4.0772 8.0385 4.09365 8.05474 4.10615L8.11572 4.02689ZM4.53592 4.4595C4.52466 4.45929 4.5134 4.45863 4.5011 4.45791C4.48914 4.4572 4.47606 4.45642 4.46285 4.45617C4.43617 4.45567 4.40643 4.45724 4.37504 4.46672L4.40394 4.56245C4.42139 4.55718 4.43955 4.55575 4.46098 4.55615C4.47182 4.55635 4.48286 4.557 4.4952 4.55773C4.50721 4.55844 4.52045 4.55923 4.53403 4.55948L4.53592 4.4595ZM4.37504 4.46672C4.33438 4.47899 4.29547 4.4974 4.25992 4.52172L4.31639 4.60425C4.34327 4.58586 4.37285 4.57184 4.40394 4.56245L4.37504 4.46672ZM4.25992 4.52172C4.18519 4.57285 4.11984 4.63649 4.06685 4.70935L4.14772 4.76817C4.19402 4.70451 4.25113 4.64891 4.31639 4.60425L4.25992 4.52172ZM4.06685 4.70935C4.0436 4.74133 4.02741 4.77783 4.01431 4.81144C4.00002 4.84808 3.99108 4.87611 3.97835 4.90597L4.07035 4.94518C4.08326 4.91489 4.0964 4.87618 4.10747 4.84778C4.11973 4.81634 4.1322 4.78952 4.14772 4.76817L4.06685 4.70935ZM3.97835 4.90597C3.94681 4.97999 3.9309 5.07373 3.95271 5.15877L4.04957 5.13394C4.03465 5.07571 4.04489 5.00492 4.07035 4.94518L3.97835 4.90597ZM3.95271 5.15877C3.99607 5.32788 4.15602 5.43511 4.29187 5.49068L4.32973 5.39813C4.20259 5.34612 4.08084 5.25589 4.04957 5.13394L3.95271 5.15877ZM4.29187 5.49068C4.33182 5.50703 4.37534 5.51327 4.4156 5.51581C4.45556 5.51832 4.49673 5.51733 4.52988 5.51733V5.41733C4.49335 5.41733 4.45769 5.41826 4.42188 5.416C4.38637 5.41377 4.35519 5.40855 4.32973 5.39813L4.29187 5.49068ZM4.52988 5.51733C4.60374 5.51733 4.67964 5.51022 4.75412 5.47225L4.7087 5.38316C4.65503 5.41053 4.59783 5.41733 4.52988 5.41733V5.51733ZM4.75412 5.47225C4.86124 5.41764 4.95214 5.32857 4.99036 5.20437L4.89478 5.17496C4.86624 5.2677 4.79749 5.3379 4.7087 5.38316L4.75412 5.47225ZM4.99036 5.20437C5.00284 5.1638 5.02679 5.11119 5.02822 5.04958L4.92825 5.04726C4.92724 5.0904 4.91242 5.11762 4.89478 5.17496L4.99036 5.20437ZM5.02822 5.04958C5.02846 5.03909 5.03027 5.02843 5.03288 5.013C5.03529 4.99878 5.03842 4.98029 5.03842 4.96039H4.93842C4.93842 4.97075 4.9368 4.98145 4.93429 4.99628C4.93198 5.00989 4.92869 5.02812 4.92825 5.04726L5.02822 5.04958ZM5.03842 4.96039C5.03842 4.9418 5.0372 4.92388 5.03602 4.90761C5.0348 4.89085 5.03365 4.87604 5.03331 4.86106L4.93334 4.86328C4.93374 4.88135 4.93513 4.89907 4.93628 4.91485C4.93746 4.93114 4.93842 4.94581 4.93842 4.96039H5.03842ZM5.03331 4.86106C5.0324 4.81998 5.01481 4.78704 4.99768 4.76207C4.98912 4.7496 4.97979 4.73789 4.97183 4.72791C4.96346 4.7174 4.95666 4.70885 4.95094 4.70053L4.86853 4.75718C4.87663 4.76897 4.88579 4.7804 4.89362 4.79022C4.90187 4.80058 4.90899 4.80957 4.91522 4.81865C4.92767 4.8368 4.93305 4.85041 4.93334 4.86328L5.03331 4.86106ZM4.95094 4.70053C4.91918 4.65433 4.87316 4.61562 4.8256 4.59001L4.77819 4.67806C4.81358 4.69712 4.84688 4.72569 4.86853 4.75718L4.95094 4.70053ZM4.8256 4.59001C4.80435 4.57857 4.78398 4.56572 4.75869 4.55099C4.73494 4.53715 4.70832 4.5226 4.68085 4.51242L4.64611 4.6062C4.66511 4.61323 4.68559 4.62413 4.70836 4.6374C4.7296 4.64977 4.7552 4.66568 4.77819 4.67806L4.8256 4.59001ZM4.68085 4.51242C4.67546 4.51042 4.66778 4.50688 4.65695 4.50158C4.64697 4.4967 4.63434 4.49036 4.62202 4.48461C4.59971 4.47421 4.56596 4.45949 4.53497 4.45949V4.55949C4.5406 4.55949 4.55503 4.56372 4.57978 4.57525C4.59099 4.58048 4.60161 4.58584 4.61302 4.59142C4.62358 4.59658 4.63542 4.60224 4.64611 4.6062L4.68085 4.51242ZM4.46758 6.45671C4.38143 6.45871 4.30105 6.49757 4.2356 6.54372C4.16961 6.59025 4.11429 6.64737 4.0772 6.69319L4.15492 6.7561C4.18766 6.71566 4.23645 6.66548 4.29323 6.62545C4.35055 6.58503 4.4116 6.55804 4.4699 6.55668L4.46758 6.45671ZM4.08004 6.68996C4.0379 6.73372 4.00957 6.79188 3.99171 6.84983C3.97373 6.90818 3.96529 6.96975 3.96529 7.02355H4.06529C4.06529 6.9794 4.07233 6.92778 4.08727 6.87928C4.10234 6.8304 4.12439 6.78808 4.15208 6.75933L4.08004 6.68996ZM3.96529 7.02355C3.96529 7.06858 3.96388 7.12422 3.98201 7.17862L4.07688 7.147C4.06491 7.1111 4.06529 7.07328 4.06529 7.02355H3.96529ZM3.98201 7.17862C3.98744 7.19491 3.99581 7.20807 4.00133 7.21661C4.00782 7.22666 4.01056 7.23075 4.01251 7.23521L4.10413 7.19513C4.09812 7.18141 4.08968 7.16908 4.08534 7.16237C4.08004 7.15416 4.07796 7.15023 4.07688 7.147L3.98201 7.17862ZM4.01251 7.23521C4.02233 7.25767 4.03479 7.28836 4.06051 7.31551L4.13311 7.24674C4.12149 7.23447 4.11533 7.22074 4.10413 7.19513L4.01251 7.23521ZM4.06051 7.31551C4.09117 7.34787 4.12322 7.38298 4.15846 7.4157L4.22651 7.34242C4.19432 7.31254 4.1655 7.28093 4.13311 7.24674L4.06051 7.31551ZM4.15846 7.4157C4.18207 7.43762 4.20798 7.45324 4.23131 7.46609C4.25634 7.47987 4.27546 7.48908 4.29537 7.50169L4.34887 7.41721C4.32564 7.40249 4.29902 7.38922 4.27955 7.37849C4.25838 7.36683 4.24104 7.35591 4.22651 7.34242L4.15846 7.4157ZM4.29537 7.50169C4.39894 7.56728 4.51852 7.5807 4.63341 7.55275L4.60977 7.45558C4.51795 7.47792 4.4268 7.46656 4.34887 7.41721L4.29537 7.50169ZM4.63341 7.55275C4.66619 7.54478 4.69822 7.53505 4.72955 7.52428L4.69704 7.42971C4.66799 7.4397 4.63897 7.44848 4.60977 7.45558L4.63341 7.55275ZM4.72955 7.52428C4.75827 7.51441 4.78215 7.49638 4.79848 7.48395L4.73793 7.40437C4.72066 7.41751 4.70855 7.42575 4.69704 7.42971L4.72955 7.52428ZM4.79848 7.48395C4.80368 7.48 4.80998 7.47669 4.82121 7.47105C4.83111 7.46608 4.84589 7.4588 4.85975 7.44819L4.79894 7.3688C4.79378 7.37276 4.7875 7.37608 4.77634 7.38168C4.76652 7.38661 4.75175 7.39386 4.73793 7.40437L4.79848 7.48395ZM4.85975 7.44819C4.89344 7.42239 4.92935 7.39641 4.96156 7.35525L4.88281 7.29362C4.85996 7.32282 4.83525 7.341 4.79894 7.3688L4.85975 7.44819ZM4.96156 7.35525C4.99643 7.3107 5.01154 7.2628 5.02639 7.22168L4.93234 7.18772C4.91567 7.23386 4.9057 7.26437 4.88281 7.29362L4.96156 7.35525ZM5.02639 7.22168C5.05643 7.1385 5.07409 7.0572 5.07409 6.96637H4.97409C4.97409 7.04325 4.95934 7.11295 4.93234 7.18772L5.02639 7.22168ZM5.07409 6.96637C5.07409 6.89326 5.0449 6.83304 5.00971 6.7825C4.97631 6.73453 4.93056 6.6867 4.8996 6.64921L4.8225 6.7129C4.86116 6.7597 4.89694 6.79553 4.92764 6.83964C4.95657 6.88119 4.97409 6.92147 4.97409 6.96637H5.07409ZM4.8996 6.64921C4.86693 6.60967 4.82358 6.57923 4.79328 6.55455L4.73011 6.63207C4.76856 6.6634 4.79817 6.68344 4.8225 6.7129L4.8996 6.64921ZM4.79328 6.55455C4.76163 6.52875 4.72099 6.49818 4.67333 6.482L4.64117 6.57669C4.67067 6.5867 4.69953 6.60715 4.73011 6.63207L4.79328 6.55455ZM4.67333 6.482C4.60549 6.45896 4.53084 6.4567 4.46874 6.4567V6.5567C4.53054 6.5567 4.59041 6.55945 4.64117 6.57669L4.67333 6.482ZM2.5178 4.47478C2.49817 4.47478 2.48443 4.47334 2.45886 4.47276C2.43722 4.47226 2.41167 4.47276 2.38677 4.47868L2.40994 4.57596C2.42207 4.57307 2.43726 4.57229 2.45659 4.57273C2.472 4.57308 2.49947 4.57478 2.5178 4.57478V4.47478ZM2.38677 4.47868C2.3566 4.48587 2.33048 4.49365 2.30185 4.50246L2.33126 4.59804C2.35944 4.58937 2.38303 4.58237 2.40994 4.57596L2.38677 4.47868ZM2.30185 4.50246C2.24483 4.52001 2.18686 4.55064 2.14222 4.59528L2.21293 4.66599C2.24366 4.63526 2.28626 4.61189 2.33126 4.59804L2.30185 4.50246ZM2.14222 4.59528C2.04441 4.69309 1.98445 4.82873 1.9569 4.95543L2.05462 4.97667C2.07936 4.86287 2.13236 4.74656 2.21293 4.66599L2.14222 4.59528ZM1.9569 4.95543C1.93898 5.03786 1.95938 5.11463 1.9798 5.18042L2.07531 5.15078C2.05517 5.08588 2.04273 5.03137 2.05462 4.97667L1.9569 4.95543ZM1.9798 5.18042C1.99162 5.21849 2.01226 5.25366 2.03851 5.28283L2.11284 5.21594C2.09568 5.19686 2.08259 5.17425 2.07531 5.15078L1.9798 5.18042ZM2.03851 5.28283C2.05616 5.30245 2.06759 5.32078 2.08935 5.34842C2.1086 5.37287 2.13322 5.40032 2.16745 5.41933L2.21601 5.33192C2.19934 5.32266 2.18462 5.30777 2.16793 5.28656C2.15374 5.26854 2.1326 5.23789 2.11284 5.21594L2.03851 5.28283ZM2.16745 5.41933C2.17369 5.4228 2.17931 5.42716 2.18916 5.43474C2.19807 5.44159 2.21052 5.45112 2.22598 5.45884L2.2707 5.3694C2.26477 5.36644 2.2591 5.36237 2.25014 5.35548C2.24212 5.34931 2.23013 5.33976 2.21601 5.33192L2.16745 5.41933ZM2.22598 5.45884C2.25751 5.47461 2.29106 5.48804 2.3262 5.4975L2.3522 5.40094C2.32452 5.39349 2.29724 5.38267 2.2707 5.3694L2.22598 5.45884ZM2.3262 5.4975C2.39746 5.51669 2.46734 5.52243 2.5379 5.52243V5.42243C2.47276 5.42243 2.41226 5.41711 2.3522 5.40094L2.3262 5.4975ZM2.5379 5.52243C2.59182 5.52243 2.65596 5.52185 2.71707 5.50837C2.77907 5.49471 2.84153 5.46705 2.8894 5.41047L2.81307 5.34588C2.78367 5.38062 2.74375 5.40009 2.69554 5.41072C2.64645 5.42154 2.59256 5.42243 2.5379 5.42243V5.52243ZM2.8894 5.41047C2.99446 5.28632 3.02634 5.12773 3.02634 4.97992H2.92634C2.92634 5.11528 2.8969 5.2468 2.81307 5.34588L2.8894 5.41047ZM3.02634 4.97992C3.02634 4.94863 3.02755 4.91113 3.01706 4.87124L2.92035 4.89669C2.92684 4.92136 2.92634 4.94425 2.92634 4.97992H3.02634ZM3.01706 4.87124C3.01134 4.84952 3.00017 4.83169 2.99279 4.81999C2.98413 4.80629 2.97973 4.79947 2.97702 4.79225L2.88339 4.82736C2.89055 4.84645 2.90185 4.86328 2.90822 4.87337C2.91585 4.88545 2.919 4.89155 2.92035 4.89669L3.01706 4.87124ZM2.97702 4.79225C2.96805 4.76831 2.95357 4.75002 2.94253 4.73687C2.92994 4.72185 2.92286 4.7144 2.91703 4.70492L2.83186 4.75733C2.84276 4.77503 2.85774 4.79138 2.86592 4.80114C2.87567 4.81276 2.88071 4.82021 2.88339 4.82736L2.97702 4.79225ZM2.91703 4.70492C2.91028 4.69394 2.90074 4.68006 2.89017 4.66693C2.88025 4.65461 2.86664 4.63944 2.85154 4.62906L2.79489 4.71147C2.79769 4.71339 2.80395 4.7193 2.81229 4.72966C2.81998 4.7392 2.82711 4.74959 2.83186 4.75733L2.91703 4.70492ZM2.85154 4.62906C2.81047 4.60083 2.75835 4.56199 2.704 4.53156C2.64929 4.50094 2.58569 4.47478 2.5178 4.47478V4.57478C2.5607 4.57478 2.6065 4.59159 2.65515 4.61882C2.70416 4.64626 2.74935 4.68016 2.79489 4.71147L2.85154 4.62906ZM2.52679 6.44181C2.45172 6.45134 2.37193 6.46668 2.29745 6.49084L2.3283 6.58596C2.39511 6.56429 2.46841 6.55003 2.53939 6.54101L2.52679 6.44181ZM2.29745 6.49084C2.2746 6.49825 2.25606 6.51046 2.24206 6.52036C2.2262 6.53157 2.2176 6.53854 2.2067 6.54471L2.25601 6.63172C2.2727 6.62226 2.28948 6.6093 2.29979 6.60201C2.31197 6.5934 2.3204 6.58852 2.3283 6.58596L2.29745 6.49084ZM2.2067 6.54471C2.15105 6.57625 2.10373 6.62858 2.07314 6.68152L2.15973 6.73154C2.18332 6.69072 2.21887 6.65276 2.25601 6.63172L2.2067 6.54471ZM2.07314 6.68152C2.01813 6.77672 1.9685 6.90073 1.9685 7.02015H2.0685C2.0685 6.92564 2.10891 6.8195 2.15973 6.73154L2.07314 6.68152ZM1.9685 7.02015C1.9685 7.08397 1.98334 7.13833 2.00173 7.19247L2.09641 7.16032C2.0793 7.10993 2.0685 7.06775 2.0685 7.02015H1.9685ZM2.00173 7.19247C2.02516 7.26147 2.06007 7.2966 2.10259 7.33912L2.1733 7.26841C2.13181 7.22692 2.11184 7.20574 2.09641 7.16032L2.00173 7.19247ZM2.10259 7.33912C2.14181 7.37834 2.1883 7.42901 2.24029 7.468C2.29368 7.50804 2.35794 7.54002 2.43657 7.54002V7.44002C2.38699 7.44002 2.34343 7.42035 2.30029 7.388C2.25577 7.35461 2.21705 7.31216 2.1733 7.26841L2.10259 7.33912ZM2.43657 7.54002C2.50465 7.54002 2.57715 7.54318 2.65416 7.52007L2.62543 7.42429C2.56573 7.4422 2.51054 7.44002 2.43657 7.44002V7.54002ZM2.65416 7.52007C2.70889 7.50366 2.77768 7.47917 2.828 7.42885L2.75729 7.35814C2.72609 7.38933 2.67897 7.40823 2.62543 7.42429L2.65416 7.52007ZM2.828 7.42885C2.85232 7.40453 2.88264 7.37506 2.90927 7.34295C2.93594 7.31079 2.96165 7.27285 2.97554 7.22962L2.88034 7.19902C2.87199 7.22499 2.85516 7.25154 2.83229 7.27912C2.80938 7.30674 2.78317 7.33226 2.75729 7.35814L2.828 7.42885ZM2.97554 7.22962C2.98095 7.2128 2.98718 7.19585 2.99387 7.17796C3.00044 7.16038 3.00754 7.14164 3.01403 7.12276C3.02703 7.08492 3.03876 7.04314 3.04127 6.99802L2.94142 6.99247C2.93966 7.02412 2.93129 7.05581 2.91945 7.09028C2.91352 7.10755 2.90702 7.12468 2.9002 7.14295C2.89349 7.16091 2.88653 7.17978 2.88034 7.19902L2.97554 7.22962ZM3.04127 6.99802C3.0441 6.94699 3.04163 6.89231 3.04163 6.84636H2.94163C2.94163 6.89921 2.94407 6.94486 2.94142 6.99247L3.04127 6.99802ZM3.04163 6.84636C3.04163 6.81321 3.04185 6.7765 3.02491 6.73494L2.9323 6.77267C2.94099 6.79397 2.94163 6.81236 2.94163 6.84636H3.04163ZM3.02491 6.73494C2.99521 6.66203 2.92707 6.59936 2.87315 6.56042L2.8146 6.64149C2.86381 6.67703 2.91333 6.72609 2.9323 6.77266L3.02491 6.73494ZM2.87315 6.56042C2.826 6.52636 2.76441 6.47371 2.68739 6.45574L2.66467 6.55312C2.71667 6.56526 2.75699 6.59988 2.8146 6.64149L2.87315 6.56042ZM2.68739 6.45574C2.63753 6.44411 2.57923 6.44141 2.53309 6.44141V6.54141C2.57696 6.54141 2.62612 6.54413 2.66467 6.55312L2.68739 6.45574Z" fill="#57B8FF"/>
<path fill-rule="evenodd" clip-rule="evenodd" d="M8.75234 5.57837C8.76415 5.52457 8.81734 5.49053 8.87114 5.50234C8.92939 5.51513 9.01599 5.55123 9.07883 5.59091C9.10763 5.60909 9.14714 5.63748 9.16997 5.67552C9.18244 5.6963 9.19694 5.73193 9.18632 5.77439C9.17548 5.81774 9.14478 5.84333 9.12041 5.85687C9.07441 5.88242 8.99953 5.91352 8.93861 5.91843C8.92249 5.91973 8.90002 5.9199 8.87662 5.91307C8.85181 5.90581 8.81835 5.88791 8.79979 5.84902C8.78236 5.8125 8.78763 5.77702 8.79434 5.75462C8.8007 5.73337 8.81129 5.71353 8.82278 5.69577C8.77224 5.68162 8.74095 5.63028 8.75234 5.57837Z" fill="black"/>
</svg>
